<svg xmlns="http://www.w3.org/2000/svg" width="152" height="30" fill="#000"><path  d="M.823 29.582V6.727L0 2.507.823 0h13.166c2.002 0 3.798.32 5.39.961 1.618.613 2.893 1.671 3.826 3.175.96 1.477 1.44 3.524 1.44 6.143 0 2.367-.426 4.29-1.276 5.766a8.065 8.065 0 0 1-3.538 3.259l.411.46 4.073 5.18 2.346 2.131v2.507h-9.258l-5.76-8.9H8.23v2.173l.411 4.178-.411 2.55H.823Zm7.406-15.46h4.032c1.426 0 2.564-.264 3.414-.793.85-.557 1.276-1.574 1.276-3.05 0-1.031-.206-1.797-.617-2.298-.412-.53-.988-.878-1.728-1.045-.713-.167-1.55-.25-2.51-.25H7.817l.412 7.437ZM36.114 29.582V6.685l-8.228.418V0h24.068v7.103l-8.434-.418v16.212l.452 4.178-.452 2.507h-7.406ZM56.068 29.582V6.77l-.822-4.262L56.068 0h20.366l2.057 1.253-2.715 5.85-3.703-.418h-9.01l.411 4.596h11.068v6.477h-4.979l-6.089-.418v5.599l.453 4.178-.453 2.465h-7.406ZM82.024 29.582l-.823-2.507.823-4.178V0h7.406v17.173l-.412 5.724h.823l7.365-.418 2.921-.418 3.62 4.847-2.016 2.674H82.024ZM111.983 30c-1.18 0-2.277-.167-3.292-.501a4.907 4.907 0 0 1-2.386-1.839c-.604-.863-.905-2.061-.905-3.593 0-1.393.343-2.549 1.028-3.468.686-.92 1.619-1.602 2.798-2.047 1.179-.446 2.51-.669 3.991-.669 1.426 0 2.496.167 3.209.501.713.307 1.33.627 1.851.961l.288-.25c0-.836-.068-1.532-.205-2.09a1.902 1.902 0 0 0-.947-1.253c-.493-.306-1.261-.46-2.304-.46-1.014 0-2.098.098-3.25.293-1.125.167-2.167.39-3.127.668-.932.251-1.632.502-2.098.753v-6.268c.85-.306 2.057-.585 3.621-.835 1.59-.279 3.538-.418 5.842-.418 2.468 0 4.416.32 5.842.96 1.454.614 2.496 1.519 3.127 2.717.631 1.17.946 2.576.946 4.22v5.557l.823 4.22-.823 2.465h-7.035v-2.047l-.412-.21c-.219.223-.603.544-1.152.962-.548.418-1.275.808-2.18 1.17-.905.334-1.989.501-3.25.501Zm3.497-5.474c.74 0 1.371-.07 1.892-.209.549-.139.946-.264 1.193-.375v-.794c0-.363-.26-.71-.781-1.045-.494-.334-1.276-.501-2.345-.501-1.482 0-2.222.529-2.222 1.587 0 .446.164.78.493 1.003.33.223.919.334 1.77.334ZM143.779 30c-1.317 0-2.373-.125-3.168-.376-.768-.223-1.331-.446-1.687-.669l-.535-.376v1.045h-7.406V6.727l-.864-4.178.864-2.507h7.406v6.727l-.412 4.721.412.21c.548-.53 1.22-1.031 2.016-1.505.823-.501 1.947-.752 3.374-.752 2.441 0 4.347.794 5.718 2.382 1.399 1.587 2.099 4.094 2.099 7.52 0 2.563-.357 4.638-1.07 6.226-.686 1.56-1.618 2.688-2.798 3.384-1.179.697-2.496 1.045-3.949 1.045Zm-3.498-5.724c1.07 0 1.92-.376 2.551-1.128.631-.78.947-1.936.947-3.468 0-1.505-.261-2.59-.782-3.26-.521-.696-1.289-1.044-2.304-1.044l-2.304.877v7.48l.411.292c.302.167.796.25 1.481.25Z"/></svg>